<svg version="1.1" id="Layer_1" xmlns="http://www.w3.org/2000/svg" xmlns:xlink="http://www.w3.org/1999/xlink" x="0px" y="0px"
	 width="100%" viewBox="0 0 1024 1024" enable-background="new 0 0 1024 1024" xml:space="preserve">
<path fill="#703F1F" opacity="1.000000" stroke="none" 
	d="
M689.621521,533.143127 
	C686.335449,533.122314 683.483704,533.323975 680.673523,533.068298 
	C676.165833,532.658142 674.913452,534.684509 675.058960,538.927307 
	C675.298767,545.916931 675.092468,552.924072 674.973206,559.922119 
	C674.946594,561.483337 675.336914,563.523438 673.167786,564.088928 
	C671.144592,564.616333 670.140869,563.067200 669.345459,561.567261 
	C665.430969,554.185852 659.079102,551.535706 651.060730,551.986267 
	C644.255737,552.368652 637.386169,551.664917 630.650330,553.213440 
	C630.164062,553.325195 629.653137,553.336243 629.172607,553.464844 
	C623.436584,554.999939 619.147034,559.228577 619.855652,563.081543 
	C620.932007,568.934082 626.044373,569.281189 630.380920,569.508972 
	C639.031860,569.963318 647.676086,570.281250 656.236755,571.701355 
	C670.080017,573.997742 679.782104,583.425354 681.228638,595.948853 
	C682.799805,609.551331 676.010010,620.893311 662.813293,626.453918 
	C650.671753,631.570068 638.160461,631.993591 625.680908,628.202576 
	C614.221558,624.721558 607.073059,615.773071 606.348022,605.185913 
	C605.651428,595.015808 613.472473,587.585510 622.748291,589.605042 
	C628.898010,590.943909 632.717773,596.291016 631.619995,602.023987 
	C630.472473,608.016235 625.415100,611.419556 619.021729,610.568665 
	C617.917786,610.421692 616.819031,609.683228 615.406006,610.503357 
	C616.805725,615.203918 620.583679,617.453735 624.768921,618.404236 
	C636.907776,621.160950 648.877686,621.043518 660.191223,614.804749 
	C665.574341,611.836426 668.529358,607.220459 669.510498,601.340881 
	C670.924927,592.864441 665.897217,586.591736 657.062622,585.307800 
	C649.439697,584.200012 641.778015,584.288940 634.116943,584.342590 
	C630.062622,584.370911 626.154663,583.712219 622.374146,582.314758 
	C614.412598,579.371521 609.613770,573.700256 609.218506,565.196655 
	C608.841431,557.083923 612.416138,550.682007 619.626099,546.613647 
	C627.487732,542.177490 636.002380,541.437805 644.816528,542.199097 
	C648.957153,542.556702 653.132446,542.519043 657.292664,542.640259 
	C659.344360,542.700073 661.302429,542.223328 662.981079,541.066040 
	C664.553772,539.981750 665.673828,538.405273 665.320435,536.416016 
	C664.950562,534.334351 663.286682,533.455994 661.306396,533.287903 
	C659.648682,533.147095 657.977844,533.111267 656.312866,533.111511 
	C611.648926,533.118042 566.984863,533.160706 522.321045,533.106689 
	C518.329834,533.101868 515.379333,533.382141 515.959534,538.658875 
	C516.286804,541.635193 517.403137,542.729736 520.319336,542.687561 
	C527.317322,542.586304 534.322998,542.831970 541.315796,542.617981 
	C545.909668,542.477417 545.764282,545.415222 545.959473,548.529602 
	C546.173645,551.946777 545.184509,553.949646 541.317505,553.885254 
	C534.986694,553.779663 528.648804,554.019592 522.320740,553.854187 
	C518.047546,553.742493 516.027527,554.915466 516.139526,559.780518 
	C516.457947,573.605896 516.173035,587.444031 516.330566,601.274780 
	C516.469238,613.457581 523.124878,620.794983 533.691284,620.811890 
	C544.525574,620.829224 552.213196,612.788025 552.750244,601.226257 
	C553.053162,594.705200 551.955750,588.423767 549.733215,581.841431 
	C553.159302,582.002075 554.416626,583.988586 555.708008,585.827271 
	C567.815735,603.066162 557.824707,626.086304 536.923889,629.325073 
	C530.863586,630.264221 524.950195,629.878113 519.187744,627.993225 
	C507.430267,624.147217 500.988129,614.866638 500.864441,601.128967 
	C500.681427,580.798401 500.795746,560.465210 500.766388,540.133179 
	C500.756256,533.119019 500.732910,533.090637 493.972076,533.086609 
	C430.642883,533.048645 367.313690,533.017090 303.984497,532.997070 
	C297.307892,532.994995 297.253937,533.081116 297.254883,539.599365 
	C297.259766,572.930786 297.342834,606.262451 297.235565,639.593506 
	C297.198120,651.213318 295.708527,662.541504 288.185181,672.157898 
	C279.245728,683.584412 261.455536,686.471313 249.465363,678.383545 
	C241.816711,673.224304 238.293900,661.468262 242.012405,653.512207 
	C245.196198,646.700256 252.599106,643.838745 259.133820,646.894104 
	C264.309662,649.314087 266.653259,654.571960 264.863281,659.748230 
	C263.122681,664.781738 258.501038,667.308044 252.940720,666.255188 
	C252.314117,666.136475 251.698044,665.962158 251.016312,665.799011 
	C251.802261,673.005615 261.060333,676.485718 268.692932,672.478577 
	C274.339172,669.514282 277.441437,664.401550 279.447144,658.589844 
	C281.749542,651.918396 282.593384,644.945374 282.619812,637.951111 
	C282.745087,604.786804 282.647400,571.621643 282.799591,538.457458 
	C282.819366,534.148865 281.928284,531.814758 277.041962,532.240967 
	C273.113129,532.583557 273.812500,529.408630 273.657043,526.991943 
	C273.478973,524.223572 274.275604,522.616150 277.493347,522.637329 
	C289.491669,522.716431 301.491028,522.621216 313.490021,522.619324 
	C391.818604,522.606750 470.147186,522.601685 548.475769,522.593750 
	C579.296326,522.590698 610.116821,522.582703 640.937378,522.584473 
	C656.092712,522.585388 671.248169,522.637573 686.403381,522.598450 
	C693.360596,522.580505 693.742798,522.130066 693.753113,515.249695 
	C693.757874,512.083252 693.611633,508.911865 693.744263,505.751526 
	C693.940125,501.081512 692.178528,498.055634 687.332092,497.198242 
	C685.646362,496.900024 684.077576,496.298950 684.051819,494.149872 
	C689.399841,490.406586 702.021851,491.272797 706.411560,495.686371 
	C708.546875,497.833252 709.203552,500.529724 709.163879,503.470184 
	C709.098633,508.302368 709.107483,513.135986 708.993591,517.966919 
	C708.914185,521.333435 710.370789,522.749390 713.803772,522.683105 
	C726.296509,522.441956 738.791870,522.320557 751.286865,522.231934 
	C754.945251,522.205994 758.606750,522.410645 762.264771,522.559692 
	C767.873840,522.788269 772.931641,519.383545 773.596802,514.812561 
	C773.868835,512.943604 773.802429,511.076050 771.924255,509.940430 
	C769.857422,508.690704 768.587463,509.849213 767.320374,511.427734 
	C765.656189,513.500977 763.602112,515.091370 760.905334,513.213318 
	C758.343079,511.428955 757.327881,508.787506 758.247009,505.762421 
	C759.455261,501.785431 762.392456,499.873169 766.477722,499.700928 
	C775.377014,499.325684 781.703613,507.356384 780.156921,517.084778 
	C779.900513,518.696899 779.451904,520.278442 779.032654,522.137451 
	C782.462585,522.910706 786.789001,521.847656 786.442810,527.759094 
	C786.197510,531.947571 784.849792,533.238342 780.831543,533.212219 
	C759.667053,533.074829 738.501282,533.119568 717.335999,533.099670 
	C716.169434,533.098572 714.998596,533.146606 713.837097,533.066040 
	C709.675903,532.777649 708.123413,534.555603 708.720093,538.754822 
	C709.372314,543.345093 708.144775,548.038086 709.343506,553.222168 
	C714.348938,548.212219 719.889771,544.392273 726.645813,542.785156 
	C752.988464,536.518616 773.466492,556.159241 768.971985,583.089844 
	C766.357605,598.754639 760.621460,613.577515 757.209778,629.015137 
	C755.359131,637.389404 754.238159,645.736206 757.132996,654.125977 
	C757.379578,654.840637 757.165649,655.714172 757.165649,657.486816 
	C750.921326,654.350647 746.914490,650.166199 744.466431,644.276306 
	C740.525574,634.795044 742.310913,625.327332 744.289978,615.834595 
	C746.769836,603.940063 751.037354,592.496826 753.158813,580.507141 
	C753.952393,576.021973 754.116455,571.512878 753.356506,567.089233 
	C752.064026,559.566284 747.698364,554.306458 740.293396,552.134155 
	C732.068604,549.721436 724.287659,550.936768 717.968018,556.974915 
	C712.511169,562.188660 709.175476,568.625977 709.198242,576.468384 
	C709.235046,589.134094 709.354004,601.802307 709.140625,614.464478 
	C709.053101,619.658936 710.655457,623.238037 715.909912,624.571533 
	C717.341980,624.934937 718.489563,625.401306 718.273865,627.149841 
	C718.051575,628.951477 716.595703,629.077026 715.270508,629.083984 
	C706.105469,629.132019 696.940063,629.137390 687.774902,629.112793 
	C686.444031,629.109192 684.992493,629.017700 684.702271,627.250183 
	C684.421326,625.539368 685.525696,624.913574 686.937012,624.509705 
	C692.376709,622.952698 693.797119,619.026855 693.776306,613.778198 
	C693.677307,588.780151 693.766174,563.781494 693.763489,538.783020 
	C693.763184,536.154541 694.210754,533.124084 689.621521,533.143127 
z"/>
<path fill="#BF663E" opacity="1.000000" stroke="none" 
	d="
M632.955444,466.365601 
	C606.039917,466.257812 586.821899,446.501770 586.695984,419.305450 
	C586.582642,394.816559 606.848999,374.002594 631.084595,373.717346 
	C656.846985,373.414154 677.952576,393.550446 678.252380,418.719055 
	C678.569763,445.360840 659.386658,465.753113 632.955444,466.365601 
z"/>
<path fill="#C7C4BF" opacity="1.000000" stroke="none" 
	d="
M708.487183,465.372620 
	C693.453857,488.334991 672.896423,502.824127 646.019653,506.639771 
	C595.830627,513.764954 555.310425,477.542450 550.508179,433.987457 
	C549.252991,422.603455 550.324097,411.767609 553.815369,401.034698 
	C554.502808,398.921387 554.838257,396.491608 557.298401,394.985504 
	C562.918701,440.200745 586.867188,469.786407 632.428650,476.149567 
	C672.804504,481.788483 702.273132,463.634430 719.023926,425.985352 
	C721.908203,431.514252 717.014343,449.992157 708.487183,465.372620 
z"/>
<path fill="#703F1F" opacity="1.000000" stroke="none" 
	d="
M382.978699,420.814758 
	C393.666260,420.860687 393.666260,420.860687 394.598145,433.019653 
	C399.745758,426.289337 406.195496,422.456116 413.359589,419.643982 
	C415.264313,418.896301 416.936432,417.430725 416.419922,415.057709 
	C415.902008,412.678406 414.055573,411.492310 411.682861,411.321564 
	C409.526001,411.166351 407.356110,411.144165 405.191986,411.144348 
	C367.210785,411.147491 329.229584,411.156830 291.248383,411.186981 
	C287.908661,411.189636 284.609161,410.990234 281.310638,410.396912 
	C276.669098,409.561951 274.042084,406.839996 272.969666,402.464447 
	C274.601929,400.361633 276.755920,400.902344 278.662079,400.900665 
	C359.622101,400.829224 440.582184,400.795166 521.542236,400.754974 
	C525.229248,400.753143 528.869995,401.128967 532.320557,402.484344 
	C537.611328,404.562561 539.615051,407.843140 539.543457,414.582672 
	C532.666748,410.023254 525.068237,411.219360 517.696167,411.193756 
	C489.543701,411.095886 461.390686,411.142853 433.237946,411.184418 
	C427.954437,411.192200 426.211090,413.291260 427.367157,417.720673 
	C428.050812,420.340027 430.490356,420.505829 432.323669,421.428070 
	C441.966736,426.279083 446.364868,436.325470 443.228424,446.587982 
	C440.407959,455.816437 430.473389,460.046997 423.104370,455.157593 
	C418.692047,452.229980 416.776520,446.877991 418.415497,442.056610 
	C420.218262,436.753235 424.163910,434.221436 429.995148,434.688904 
	C431.286011,434.792389 432.562927,435.070465 434.206177,435.323608 
	C434.288605,431.015656 431.705139,429.352417 428.439270,428.235565 
	C419.942688,425.329987 408.261566,429.203430 402.073517,437.116608 
	C397.091949,443.486908 394.531433,450.856873 394.373596,458.875061 
	C394.147461,470.364868 394.343140,481.862488 394.298218,493.356537 
	C394.279114,498.250549 395.963562,501.784119 401.177277,502.855682 
	C402.504089,503.128418 403.927917,503.557281 403.840820,505.280212 
	C403.733246,507.407593 401.989868,507.347839 400.507629,507.352936 
	C391.512329,507.384003 382.516785,507.390106 373.521545,507.347198 
	C372.079803,507.340332 370.263245,507.510010 370.068665,505.398804 
	C369.883453,503.389374 371.598022,503.107269 373.020630,502.654663 
	C377.072052,501.365723 378.802002,498.509888 378.801636,494.350403 
	C378.799835,474.194153 378.791443,454.037689 378.895264,433.881866 
	C378.919586,429.155304 376.968842,426.271851 372.286224,425.385925 
	C370.695038,425.084900 369.177368,424.582550 369.432678,422.646301 
	C369.700653,420.613953 371.549316,420.826080 372.993164,420.798828 
	C376.156555,420.739075 379.322266,420.802399 382.978699,420.814758 
z"/>
<path fill="#703F1F" opacity="1.000000" stroke="none" 
	d="
M316.774689,648.100586 
	C318.371124,638.120422 323.505798,632.665894 330.910034,633.138977 
	C336.011505,633.465027 340.236084,635.682434 342.438568,640.629150 
	C344.269562,644.741638 343.253784,648.511597 340.417084,651.750671 
	C336.756073,655.931091 332.207886,656.186340 326.653259,653.683411 
	C329.476135,660.196716 334.207458,662.886841 340.060303,663.670654 
	C355.731720,665.769348 367.987427,656.292236 370.649750,640.358276 
	C371.837372,633.250183 371.796722,626.123657 371.563843,618.137268 
	C365.873657,622.676392 360.448151,626.570801 353.601044,627.736389 
	C335.422729,630.830627 313.573425,621.369751 312.627808,595.289734 
	C312.197388,583.419434 316.345642,572.361145 318.015533,560.870667 
	C319.253052,552.355530 318.456451,550.454590 310.752106,546.951599 
	C309.486816,546.376282 308.172638,545.868896 308.587494,544.145142 
	C308.942108,542.671814 310.280334,542.721802 311.433685,542.718506 
	C315.263977,542.707520 319.118378,542.485229 322.919708,542.828979 
	C330.514984,543.515869 334.669342,548.261536 334.226868,555.890991 
	C333.753418,564.054932 331.147766,571.873047 329.814331,579.901917 
	C328.481018,587.929993 326.908081,595.993408 329.188232,604.120117 
	C331.695587,613.056641 337.479553,618.655273 346.766388,619.472595 
	C355.849335,620.271912 362.916748,616.258118 367.506378,608.299988 
	C370.205811,603.619324 371.734680,598.567139 371.719208,593.086487 
	C371.686768,581.592957 371.673676,570.098999 371.743988,558.605774 
	C371.776886,553.221985 370.877930,548.568848 364.642548,547.069946 
	C363.471619,546.788574 362.470276,546.053955 362.656281,544.598022 
	C362.888062,542.784180 364.350098,542.734680 365.681274,542.732483 
	C375.175659,542.716980 384.670197,542.725586 394.164459,542.775696 
	C395.495209,542.782715 396.954865,542.923767 397.046448,544.778931 
	C397.130310,546.478271 395.990540,547.037903 394.552887,547.314697 
	C388.610077,548.458801 387.159668,552.509644 387.186493,557.982239 
	C387.305664,582.301575 387.329926,606.622192 387.217834,630.941528 
	C387.180878,638.961182 386.249298,646.887268 382.324432,654.148560 
	C372.214996,672.851929 345.264313,679.663635 327.612183,667.780090 
	C320.893005,663.256775 317.079651,656.809326 316.774689,648.100586 
z"/>
<path fill="#703F1F" opacity="1.000000" stroke="none" 
	d="
M326.026794,419.644165 
	C346.466309,419.826599 363.056732,434.037628 365.349609,452.920258 
	C367.917511,474.067932 356.756226,491.670227 337.343048,496.464844 
	C324.728973,499.580261 313.658234,495.989899 304.048157,487.472015 
	C301.944672,485.607605 299.821136,483.765869 297.304474,481.561249 
	C297.304474,489.866638 297.314789,498.105591 297.301544,506.344482 
	C297.288605,514.403687 297.278076,514.403687 289.026489,514.348511 
	C288.359863,514.344055 287.688568,514.286011 287.027435,514.343994 
	C283.763977,514.630371 282.648132,513.084106 282.687347,509.915924 
	C282.802826,500.584473 282.718597,491.250610 282.719360,481.917694 
	C282.720581,466.585083 282.670197,451.252106 282.762360,435.920013 
	C282.794586,430.559448 281.538361,426.335907 275.508820,425.117798 
	C274.170593,424.847443 272.854584,424.138885 273.122314,422.443207 
	C273.403076,420.665222 274.984497,420.754608 276.282562,420.748047 
	C281.448517,420.721893 286.623718,420.965027 291.778320,420.730530 
	C296.217926,420.528534 297.813843,422.391205 297.402466,426.656097 
	C297.269287,428.036591 296.817627,429.657349 298.490448,431.303925 
	C306.173431,424.463074 314.777130,419.400208 326.026794,419.644165 
M308.040771,435.512268 
	C300.907013,442.206421 296.137329,450.078857 297.899750,460.205017 
	C300.118866,472.955200 308.988281,479.532379 320.868408,482.249878 
	C339.368225,486.481628 357.544373,469.638031 354.045685,451.821930 
	C349.742126,429.907257 326.655884,421.394470 308.040771,435.512268 
z"/>
<path fill="#703F1F" opacity="1.000000" stroke="none" 
	d="
M497.848816,509.725647 
	C485.001221,509.558472 473.725494,506.177917 464.563660,497.426941 
	C451.172333,484.636169 446.916290,463.892914 453.980896,446.687317 
	C461.425049,428.557373 477.051514,418.546112 497.714264,418.669037 
	C518.534485,418.792908 536.795044,433.945038 541.124268,454.689514 
	C545.590881,476.092255 535.299438,497.163727 516.220337,505.786774 
	C510.503265,508.370667 504.463989,509.331207 497.848816,509.725647 
M513.382324,433.098602 
	C500.670959,423.208435 485.814087,424.368347 475.987579,436.018066 
	C464.184479,450.011078 463.401886,475.581024 474.330109,490.173279 
	C485.849792,505.555420 506.995392,505.705872 518.193970,490.485352 
	C530.347900,473.966370 528.394653,448.088959 513.382324,433.098602 
z"/>
<path fill="#703F1F" opacity="1.000000" stroke="none" 
	d="
M487.990356,597.598755 
	C481.941376,619.014282 463.145874,631.800537 443.032166,630.750916 
	C418.811310,629.486877 402.498291,614.441833 398.938812,591.401672 
	C395.002625,565.922852 415.065002,542.585449 440.803314,541.502441 
	C466.160706,540.435486 482.517181,556.508606 487.528320,572.528931 
	C490.084473,580.700806 489.871399,588.928101 487.990356,597.598755 
M415.212311,581.711914 
	C414.762360,589.086914 415.128693,596.331116 418.090424,603.273926 
	C422.662598,613.991882 430.030548,621.457886 442.045929,622.581787 
	C454.872711,623.781555 463.230469,616.732178 468.572876,605.951477 
	C474.130493,594.736572 474.501038,582.801270 470.992523,570.924011 
	C468.927673,563.933960 464.831848,558.038025 458.721436,553.738525 
	C448.995483,546.894836 436.236481,547.504883 427.314972,555.320862 
	C419.624237,562.058594 415.912506,570.699585 415.212311,581.711914 
z"/>
<path fill="#703F1F" opacity="1.000000" stroke="none" 
	d="
M584.000122,542.686035 
	C588.831421,542.689758 593.164001,542.650513 597.494751,542.723145 
	C598.907104,542.746765 600.726929,542.404968 601.047302,544.526550 
	C601.346802,546.509644 599.931458,547.023682 598.343384,547.386169 
	C593.461853,548.500366 591.535278,552.055908 591.510559,556.594421 
	C591.403381,576.253296 591.394226,595.913452 591.507874,615.572205 
	C591.534363,620.158569 593.731445,623.543457 598.536316,624.652161 
	C599.979126,624.985046 601.140991,625.613647 600.841431,627.300415 
	C600.590515,628.712646 599.287720,628.986816 598.120667,628.990967 
	C588.626770,629.024902 579.132629,629.022095 569.638855,628.969666 
	C568.462646,628.963196 567.243469,628.573608 567.058777,627.116333 
	C566.835327,625.353333 568.090576,624.894653 569.484253,624.571960 
	C575.297546,623.225464 576.774292,619.197205 576.724060,613.717102 
	C576.566711,596.557434 576.714111,579.395081 576.632996,562.234314 
	C576.602173,555.715393 577.071045,548.795898 568.401794,546.754272 
	C567.370850,546.511536 566.808899,545.458557 567.161804,544.355896 
	C567.585815,543.030701 568.808838,542.798340 570.005920,542.783325 
	C574.503967,542.726868 579.002441,542.715027 584.000122,542.686035 
z"/>
<path fill="#BF663E" opacity="1.000000" stroke="none" 
	d="
M665.203674,380.785522 
	C658.163086,374.866150 650.345093,371.234955 641.739441,369.542755 
	C638.038452,368.815002 637.432556,367.316223 638.586731,364.081238 
	C640.976440,357.383057 643.203552,350.626862 646.200439,343.975159 
	C648.037964,351.691254 646.679016,359.456512 646.642578,368.657593 
	C652.187988,361.096680 654.832764,353.480225 660.096436,347.705719 
	C660.533752,347.880341 660.971130,348.054993 661.408508,348.229614 
	C659.886963,355.377808 658.365417,362.526001 656.645996,370.603729 
	C663.195679,364.726105 667.273621,357.943695 673.760071,353.279449 
	C672.201599,360.829010 667.811646,367.339874 665.858826,375.949402 
	C672.494202,370.708649 677.868652,365.421478 684.320618,361.699585 
	C684.667542,361.989044 685.014404,362.278534 685.361328,362.568024 
	C681.610168,368.678986 677.858948,374.789948 673.565491,381.784271 
	C681.580383,379.238586 687.552246,374.127136 695.254089,373.257751 
	C691.054504,379.340210 684.551392,383.042572 679.379578,389.771454 
	C688.153320,388.860565 695.273804,385.160828 703.258972,384.606445 
	C697.884827,390.574280 690.243286,393.456940 683.552673,398.789001 
	C692.116028,399.518799 699.909485,397.102203 707.907288,398.442657 
	C701.208313,403.003326 693.025391,404.340057 685.777405,408.985870 
	C694.107788,410.401672 702.290649,409.060486 709.963562,411.430389 
	C710.033081,411.924438 710.102539,412.418488 710.172058,412.912537 
	C702.935974,414.752441 695.699890,416.592316 687.452087,418.689453 
	C694.824707,422.424255 702.390686,422.891388 709.340393,426.161804 
	C707.498352,428.354095 705.395203,427.324890 703.650146,427.370239 
	C698.821655,427.495636 693.978088,427.175598 689.156494,427.390137 
	C685.001099,427.575043 683.410156,425.926697 683.774841,421.827423 
	C684.713257,411.277985 681.417725,401.834076 676.010681,392.957764 
	C673.199219,388.342255 669.419861,384.612701 665.203674,380.785522 
z"/>
<path fill="#BF663E" opacity="1.000000" stroke="none" 
	d="
M594.330139,385.268524 
	C589.932861,392.804199 584.380981,399.705597 582.853027,408.734985 
	C581.934143,414.164795 580.668030,419.472412 581.822815,425.009735 
	C582.120483,426.437286 582.523743,428.160034 580.702454,428.919067 
	C578.867920,429.683563 577.189148,428.772797 576.495300,427.200745 
	C573.941895,421.415771 570.210144,416.437805 565.922668,411.913513 
	C568.222046,408.626221 571.712891,409.711914 574.461914,408.264252 
	C571.021301,404.564301 565.685913,403.513702 562.237976,398.993195 
	C569.094238,398.254181 575.333679,398.695190 581.687317,399.918610 
	C575.803528,395.523071 569.919739,391.127563 564.035950,386.732025 
	C572.167542,386.661224 579.073792,390.285461 586.903503,392.123840 
	C581.046082,385.919525 575.448853,379.990875 569.851624,374.062225 
	C578.072266,375.099060 583.956177,380.623413 591.874390,383.205505 
	C593.093384,384.062531 593.711731,384.665527 594.330139,385.268524 
z"/>
<path fill="#BF663E" opacity="1.000000" stroke="none" 
	d="
M597.620850,371.281128 
	C595.369873,365.258942 591.955078,360.074707 591.233765,353.688416 
	C597.924622,358.235687 602.018250,365.292938 608.395447,371.187225 
	C607.221741,362.765472 603.815979,355.480835 603.669678,346.382263 
	C608.178894,351.023895 610.441467,355.719086 612.842896,360.298065 
	C614.453247,363.368652 617.260986,366.629486 617.050415,369.630981 
	C616.783447,373.435730 611.451538,372.704834 608.755371,374.703217 
	C608.622864,374.801453 608.461853,374.860748 608.326538,374.955841 
	C601.680603,379.625641 601.410950,379.382446 597.620850,371.281128 
z"/>
<path fill="#BF663E" opacity="1.000000" stroke="none" 
	d="
M594.630371,385.135193 
	C593.711731,384.665527 593.093384,384.062531 592.245972,383.235352 
	C587.723083,376.373260 583.429199,369.735413 578.370728,361.915710 
	C583.568054,363.725586 586.206055,366.697144 589.258728,369.009338 
	C591.382812,370.618164 593.424255,372.335907 595.506042,374.000793 
	C602.069397,379.249969 602.023438,380.139954 594.630371,385.135193 
z"/>
<path fill="#BF663E" opacity="1.000000" stroke="none" 
	d="
M619.926880,346.443024 
	C622.228271,354.024323 626.005981,360.772308 627.125793,368.309601 
	C619.206177,370.985321 618.188782,370.472717 617.839844,362.794861 
	C617.557251,356.575470 615.846436,350.365967 617.070374,344.169647 
	C619.127441,343.712677 619.214355,345.187164 619.926880,346.443024 
z"/>
<path fill="#BF663E" opacity="1.000000" stroke="none" 
	d="
M635.545166,357.536957 
	C636.047729,361.221649 636.459290,364.478333 636.861450,367.660461 
	C629.081604,369.817749 627.741150,368.919586 628.701965,362.019165 
	C629.601440,355.559692 629.543701,348.915985 632.063354,341.167694 
	C634.967285,347.110138 634.667542,352.237518 635.545166,357.536957 
z"/>
</svg>